<svg viewBox="0 0 234 303" width="234" height="303" xmlns="http://www.w3.org/2000/svg" xmlns:xlink="http://www.w3.org/1999/xlink" xml:space="preserve" overflow="hidden"><g transform="translate(-1943 -2731)"><g><path d="M2119.46 2770.03C2122.74 2769.66 2125.54 2772.53 2124.91 2775.52 2125.4 2778.63 2122.49 2780.94 2119.46 2781 2115.73 2781.06 2113.96 2778.62 2114 2775.52 2114.15 2774.06 2114.69 2772.65 2115.61 2771.62L2115.71 2771.57 2115.78 2771.43C2116.82 2770.55 2118.18 2770.12 2119.46 2770.03Z" fill="#4472C4" fill-rule="evenodd" fill-opacity="1"/><path d="M2162.82 2744C2164.87 2744.35 2165.68 2745.03 2165.91 2747.09 2165.91 2747.11 2165.91 2747.13 2165.91 2747.15 2165.56 2749.09 2166.25 2750.71 2165.89 2752.15L2163.94 2761.45 2163.41 2762.59C2161.45 2765.58 2158.81 2768.16 2156.87 2770.59 2137.05 2790.34 2131.09 2788.01 2109.57 2807.41 2104.91 2812.05 2103.42 2817.17 2106.74 2821.58 2107.03 2821.96 2107.2 2822.31 2107.54 2822.79 2109.46 2825.49 2112.85 2827.69 2116.42 2827.22 2119.01 2826.9 2120.74 2826.52 2123.09 2824.99 2129.09 2819.91 2131.71 2819.65 2138.44 2813.38 2138.48 2813.73 2138.43 2814.13 2138.44 2814.43L2137.07 2819.76 2133.92 2825.18C2115.19 2845.91 2089.52 2867.15 2068.51 2889.43 2068.23 2889.93 2067.09 2890.6 2066.74 2891.18 2064.21 2893.19 2063.82 2895.76 2063.56 2898.83 2064.71 2900.1 2067.1 2900.6 2068.4 2899.2 2068.45 2899.13 2068.53 2899.07 2068.59 2899.02 2069.45 2898.08 2070.53 2897.5 2071.04 2896.57 2073.01 2894.13 2076.22 2892.32 2077.79 2889.93 2079.86 2898.13 2080.23 2906.53 2081.68 2914.48 2082.22 2917.93 2081.26 2920.38 2081.15 2922.04 2081.03 2923.79 2079.36 2925.14 2077.89 2924.95 2077.08 2924.83 2076.32 2924.48 2075.79 2923.95 2072.1 2919.92 2068.46 2911.3 2061.62 2907.28 2060.88 2906.79 2059.9 2905.14 2059.25 2904.42 2057.7 2902.99 2055.83 2902.22 2054.42 2903.95 2054.37 2904.01 2054.31 2904.04 2054.28 2904.08 2054.03 2904.39 2053.59 2904.67 2052.99 2905.27 2049.75 2909.05 2046.08 2910.5 2041.11 2916.46 2034.98 2923.06 2030.19 2928.29 2032.03 2938.97 2029.31 2948.1 2034.55 2957.31 2042.57 2964.33L2042.77 2964.46 2043.18 2965.06C2046.25 2968.05 2049.96 2970.43 2054.38 2972.3L2055.57 2972.62 2056.04 2972.93C2060.79 2975.05 2065.59 2976.34 2069.78 2976.51 2071.96 2976.39 2073.54 2976.69 2075.15 2976.51 2080.79 2977.36 2089.69 2972.01 2093.31 2965.36 2096.13 2959.73 2100.02 2956.42 2101.89 2949.93L2108.05 2943.59 2114.83 2939.59C2114.86 2939.59 2114.89 2939.62 2114.88 2939.64 2111.96 2950.2 2107.46 2958.28 2106.03 2965.82 2105.26 2968.22 2103.99 2968.78 2102.6 2970.4 2100.01 2971.66 2098.56 2974.47 2098.1 2977.56L2098.12 2977.72 2097.84 2978.18C2097.21 2980.94 2097.65 2983.76 2099.49 2986.38 2099.97 2987.84 2101.59 2988.78 2102.64 2989.52 2103.86 2990.48 2105.72 2992.34 2106.18 2994.15 2107.63 2998.1 2108.35 3001.96 2109.48 3006.25L2112.13 3012.92 2112.72 3015.84C2113.29 3017.84 2114.06 3019.58 2115.31 3020.95 2115.32 3020.97 2115.3 3021 2115.28 3021 2115.28 3021 2115.27 3021 2115.27 3021L2108.36 3018.58 2103.48 3012.86C2101.06 3009.53 2100.23 3006.55 2097.89 3002.76 2095.35 2996.36 2085.59 2988.39 2076.65 2990.25 2074.61 2990.39 2074.12 2989.74 2071.74 2990.25 2062.32 2990.42 2052.54 2989.01 2043.28 2986.02L2029.19 2978.4 2014.93 2968.39C2008.21 2961.06 2003.13 2952.45 2000.12 2943.46L1997.38 2930.57 1997.7 2916.15C1997.67 2908.83 1997.71 2904.05 1997.73 2899.11L1997.74 2895.94 1998.58 2889.27C1998.7 2886.64 1998.52 2883.99 1997.7 2881.17 1998.56 2874.75 2000.85 2868.07 2001.67 2861.45 2002.07 2859.71 2001.79 2857.87 1999.46 2857.13 1997.48 2856.28 1995.29 2857.71 1995.17 2859.26 1995.52 2860.04 1993.74 2862.78 1992.97 2866.87 1988.57 2862.52 1983.96 2859.7 1977.69 2859.7 1971.52 2861.36 1965.5 2857.21 1953.33 2859.7 1953.24 2859.69 1953.16 2859.64 1953.09 2859.6 1952.97 2859.51 1952.98 2859.25 1953.06 2859.14 1955.15 2856.77 1956.19 2856.33 1958.86 2853.33L1972.39 2844.11 1977.23 2841.63C1984.77 2838.53 1993.29 2836.37 2001.48 2835.65 2001.98 2835.56 2002.61 2835.79 2003.05 2835.65 2013.27 2836.21 2021.48 2833.02 2028.35 2826.03 2031.58 2821.45 2035.31 2817.57 2039.27 2814.07L2050.56 2805.25 2051.91 2804.26C2061.02 2798.16 2069.88 2792.44 2074 2784.8 2081.81 2780.57 2093 2771.7 2102.21 2767.44 2108.07 2764.19 2113.72 2761.84 2119.15 2759.98L2131.37 2756.36 2133.46 2755.83C2143.34 2753.69 2152.7 2751.55 2161.63 2744.23 2162.08 2744.17 2162.47 2744.1 2162.82 2744ZM2119.52 2770.38C2118.32 2770.46 2117.03 2770.86 2116.05 2771.68L2115.99 2771.82 2115.89 2771.86C2115.03 2772.83 2114.51 2774.16 2114.37 2775.53 2114.34 2778.44 2116 2780.74 2119.52 2780.68 2122.38 2780.62 2125.13 2778.45 2124.67 2775.53 2125.27 2772.72 2122.62 2770.03 2119.52 2770.38Z" fill="#E1E1E1" fill-rule="evenodd" fill-opacity="1"/><path d="M2163.03 2737C2161.48 2736.84 2160.68 2737.53 2159.25 2737.75 2136.25 2754.65 2119.18 2746.28 2099.84 2760.91 2087.02 2762.35 2077.65 2770.19 2069.47 2779.57 2059.31 2793.47 2035.64 2803.89 2023.76 2820.81 2017.99 2825.46 2010.62 2827.77 2003.02 2828.68 2002.28 2828.68 2002.15 2828.67 2001.44 2828.68 1984.17 2829.65 1965.26 2838.11 1953.91 2848.36 1952.79 2849.93 1949.31 2852.27 1948.28 2853.98 1946.31 2855.93 1945.63 2858.76 1946.26 2861.28 1947.87 2864.58 1949.63 2866.32 1953.18 2866.48 1958.83 2863.74 1971.73 2867.87 1977.62 2866.48 1985.36 2867.02 1991.07 2874.32 1990.79 2879.64 1991.61 2887.87 1988.74 2904.54 1990.79 2916.07 1994.97 2961.06 2027.72 2999.08 2071.81 2997.07 2073.82 2996.92 2075.56 2997.59 2076.74 2997.07 2082.81 2995.6 2088.97 3001.54 2092.02 3006.06 2095.43 3009.45 2094.51 3012.07 2097.6 3016.14 2102.01 3022.97 2109.78 3028.49 2117.79 3028 2117.85 3028 2117.92 3028.01 2118.04 3028 2120.73 3027.85 2123.9 3025.52 2123.13 3022.93 2123.17 3022.25 2123.04 3021.76 2122.8 3021.13 2118.26 3011.57 2117.82 3002.88 2112.84 2991.88 2112.5 2989.18 2109.1 2986.33 2106.58 2983.74 2104.81 2982.58 2103.67 2979.5 2105.31 2977.31 2105.66 2976.8 2105.97 2976.5 2106.58 2976.04 2109.43 2974.73 2111.34 2970.89 2112.73 2967.83 2113.99 2958.94 2123.58 2946.8 2123.77 2935.21 2123.99 2933.63 2123.19 2932.4 2121.79 2931.86 2121.54 2931.77 2121.32 2931.76 2121.11 2931.78 2110.43 2931.22 2101.86 2935.73 2096.01 2946.52 2094.59 2953.17 2089.11 2956.66 2087.35 2962.06 2085.25 2965.48 2079.06 2968.98 2075.19 2969.58 2072.73 2970.13 2072.11 2969.3 2069.86 2969.58 2051.96 2970.87 2041.14 2956.84 2038.92 2938.65 2036.93 2932.87 2040.91 2926.88 2045.8 2921.47 2050.51 2916.6 2054.34 2913.81 2056.35 2911.54 2062.49 2915.4 2063.6 2921.2 2070.67 2928.38 2074.57 2932.18 2080.64 2933.51 2084.74 2929.28 2087.2 2926.94 2088.44 2925.47 2088.11 2922.4 2087.99 2918.87 2089.24 2916.81 2088.64 2914.89 2086.87 2907.29 2084.26 2894 2083.52 2884.33 2102.07 2865.61 2123.67 2849.8 2138.93 2829.99 2142.59 2825.74 2145.07 2820.21 2145.5 2814.32 2145.19 2811.97 2145.64 2810.59 2145.5 2809.43 2145.51 2807.12 2142.86 2804.29 2140.55 2804.48 2140.53 2804.49 2140.5 2804.48 2140.48 2804.48 2139.58 2804.62 2138.44 2804.88 2137.52 2805.48 2130.9 2812.54 2126.31 2812.28 2119.09 2819.4 2117.31 2820.83 2114.86 2820.69 2113.17 2818.56 2113.05 2818.4 2112.95 2818.28 2112.87 2818.09 2111.85 2815.78 2112.5 2813.85 2113.97 2812.7 2127.19 2793.39 2144.59 2793.94 2161.31 2775.89 2169.63 2771.32 2175.44 2760.8 2173 2752 2172.74 2749.65 2173.06 2749.29 2173 2747.02 2173.6 2741.02 2167.95 2737.09 2163.03 2737ZM2166.12 2752.02C2167.66 2760.14 2160.97 2765.61 2157.09 2770.47 2137.24 2790.22 2131.26 2787.89 2109.71 2807.3 2105.05 2811.95 2103.55 2817.06 2106.88 2821.47 2107.11 2822.01 2107.36 2822.23 2107.67 2822.68 2109.73 2824.83 2112.92 2826.93 2116.57 2827.12 2119.43 2827.08 2120.69 2826.37 2123.25 2824.89 2128.7 2818.63 2135.4 2817.71 2138.63 2813.27 2138.67 2813.57 2138.58 2814.03 2138.63 2814.32 2137.86 2817.87 2137.09 2822.03 2134.1 2825.08 2115.34 2845.81 2089.63 2867.06 2068.58 2889.34 2068.15 2889.81 2067.44 2890.07 2066.81 2891.1 2065.43 2893.34 2064.38 2895.92 2063.63 2898.74 2064.53 2899.88 2066.96 2900.31 2068.47 2899.11 2068.54 2899.06 2068.61 2899.01 2068.67 2898.94 2069.03 2898.24 2070.19 2897.44 2071.11 2896.49 2073.28 2893.43 2076.26 2891.5 2077.88 2889.85 2079.96 2898.05 2080.33 2906.45 2081.77 2914.41 2082.16 2918.01 2081.12 2919.4 2081.24 2921.97 2080.77 2923.65 2079.67 2924.93 2077.97 2924.88 2077.36 2924.8 2076.39 2924.28 2075.87 2923.88 2072.18 2919.85 2068.53 2911.22 2061.69 2907.2 2060.65 2906.3 2060.27 2905.42 2059.31 2904.34 2057.75 2902.91 2055.89 2902.14 2054.47 2903.87 2054.43 2903.92 2054.38 2903.96 2054.33 2904 2053.85 2904.46 2053.38 2904.76 2053.04 2905.19 2049.79 2908.97 2046.12 2910.42 2041.14 2916.38 2035.22 2921.7 2031.58 2930.98 2032.04 2938.9 2034.96 2962.33 2046.32 2972.56 2069.86 2976.45 2072.03 2976.33 2073.62 2976.64 2075.24 2976.45 2082.26 2975.15 2089.57 2972.27 2093.42 2965.29 2094.48 2961.81 2098.62 2956.75 2102.02 2949.86 2103.33 2945.57 2110.46 2942.1 2114.98 2939.52 2115.01 2939.52 2115.03 2939.54 2115.03 2939.57 2112.1 2950.13 2107.6 2958.21 2106.17 2965.76 2105.5 2967.86 2104.18 2969.08 2102.73 2970.33 2097.87 2975.01 2095.93 2981.09 2099.61 2986.32 2100.09 2987.76 2101.31 2988.24 2102.77 2989.46 2103.92 2990.7 2105.57 2992.08 2106.32 2994.1 2109.21 3002 2109.19 3009.52 2115.46 3020.9 2115.46 3020.92 2115.46 3020.94 2115.43 3020.95 2115.43 3020.95 2115.42 3020.95 2115.42 3020.95 2110.18 3021.3 2106.34 3017.11 2103.61 3012.81 2101.18 3009.48 2100.36 3006.5 2098.01 3002.71 2094.05 2995.02 2086.8 2991.32 2076.74 2990.2 2074.58 2990.22 2072.84 2989.83 2071.82 2990.2 2034.07 2990.85 1990.58 2966.41 1997.66 2916.07 1994.04 2901.05 2000.94 2892.35 1997.66 2881.08 1998.52 2874.66 2000.81 2867.98 2001.64 2861.36 2001.98 2859.34 2001.35 2857.67 1999.42 2857.03 1997.68 2856.79 1996.21 2857.25 1995.12 2859.16 1994.76 2859.79 1994.9 2862.56 1992.92 2866.78 1988.52 2862.43 1983.9 2859.6 1977.62 2859.61 1971.43 2861.27 1965.41 2857.11 1953.21 2859.61 1953.12 2859.6 1953.02 2859.59 1952.97 2859.5 1952.86 2859.37 1952.86 2859.2 1952.94 2859.04 1955.04 2856.68 1956.08 2856.23 1958.76 2853.23 1970.91 2842.26 1983.09 2835.57 2001.45 2835.55 2002 2835.38 2002.59 2835.6 2003.02 2835.55 2013.25 2836.11 2021.47 2832.92 2028.36 2825.93 2038.58 2807.55 2065.84 2799.97 2074.08 2784.69 2081.91 2780.46 2093.11 2771.58 2102.34 2767.32 2124.33 2752.66 2143.97 2758.75 2161.86 2744.11 2162.16 2743.95 2162.64 2743.84 2163.05 2743.87 2165.1 2744.23 2165.91 2744.9 2166.14 2746.97 2166.14 2746.99 2166.15 2747.01 2166.14 2747.02 2166.44 2748.53 2165.72 2750.21 2166.12 2752.02Z" fill="#000000" fill-rule="evenodd" fill-opacity="1"/><path d="M2163.03 2737C2161.76 2737 2160.41 2737.22 2159.25 2737.75 2136.33 2752.04 2126.29 2745.83 2099.84 2760.91 2089.41 2765.49 2077.87 2772.55 2069.47 2779.57 2060.69 2789.35 2041.66 2803.24 2023.76 2820.81 2018.7 2825.58 2010.26 2827.3 2003.02 2828.68 2002.3 2828.77 2001.78 2828.58 2001.44 2828.68 1981.18 2826.88 1965.47 2839.05 1953.91 2848.36 1951.51 2850.98 1949.59 2851.62 1948.28 2853.98 1946.51 2856.09 1945.94 2859.24 1946.26 2861.28 1947.77 2864.69 1950.67 2866.53 1953.18 2866.48 1963.58 2865.4 1967 2867.84 1977.62 2866.48 1985.95 2867.32 1989.62 2871.33 1990.79 2879.64 1993.36 2886.94 1988.76 2904.9 1990.79 2916.07 1989.8 2952.32 2030.02 3010.11 2071.81 2997.07 2073.82 2997.03 2075.72 2997.33 2076.74 2997.07 2083.43 2995.57 2089.25 2999.73 2092.02 3006.06 2094.64 3008.12 2095.7 3012.9 2097.6 3016.14 2102.19 3024.43 2109.14 3028.98 2117.79 3028 2117.9 3027.99 2117.95 3028.01 2118.04 3028 2120.8 3027.95 2123.03 3025.65 2123.13 3022.93 2123.13 3022.3 2122.98 3021.6 2122.8 3021.13 2118.8 3014.64 2121.02 3005.11 2112.84 2991.88 2111.37 2989.38 2109.94 2986.39 2106.58 2983.74 2104.21 2982.65 2103.58 2980.12 2105.31 2977.31 2105.66 2976.64 2106.02 2976.43 2106.58 2976.04 2110.32 2974.17 2111.61 2971.12 2112.73 2967.83 2116.85 2954.76 2122.52 2948.94 2123.77 2935.21 2124.53 2933.75 2123.56 2932.57 2121.79 2931.86 2121.52 2931.83 2121.33 2931.73 2121.11 2931.78 2110.09 2928.95 2102.43 2936.84 2096.01 2946.52 2093.87 2951.38 2090.51 2954.94 2087.35 2962.06 2085.06 2966.49 2081.56 2970.02 2075.19 2969.58 2073.04 2969.67 2070.97 2969.19 2069.86 2969.58 2051.8 2969.08 2037.75 2957.51 2038.92 2938.65 2037.86 2932.37 2039.96 2925.55 2045.8 2921.47 2050.48 2915.9 2053.76 2914.89 2056.35 2911.54 2062.19 2918.37 2063.55 2921.6 2070.67 2928.38 2075.71 2931.89 2079.91 2933.24 2084.74 2929.28 2086.16 2927 2088.36 2925.06 2088.11 2922.4 2087.65 2919.67 2088.79 2918.39 2088.64 2914.89 2090.49 2908.62 2086.13 2891.7 2083.52 2884.33 2103.03 2853.24 2131.63 2846.53 2138.93 2829.99 2141.91 2824.78 2144.96 2819.51 2145.5 2814.32 2144.93 2812.62 2145.87 2811.85 2145.5 2809.43 2145.59 2806.63 2143.27 2804.41 2140.55 2804.48 2140.52 2804.49 2140.5 2804.48 2140.48 2804.48 2139.37 2804.73 2138.31 2804.94 2137.52 2805.48 2133.93 2810.92 2121.76 2814.57 2119.09 2819.4 2117.19 2820.75 2114.46 2820.45 2113.17 2818.56 2113.03 2818.37 2112.98 2818.24 2112.87 2818.09 2111.62 2815.8 2112.85 2814.03 2113.97 2812.7 2134.79 2795.53 2152.17 2789.71 2161.31 2775.89 2168.52 2770.3 2172.48 2758.9 2173 2752 2172.81 2750.83 2173.2 2748.82 2173 2747.02 2174.18 2741.9 2168.43 2737.66 2163.03 2737ZM2166.12 2752.02C2167.02 2757.87 2162.66 2766.62 2157.09 2770.47 2138.39 2792.89 2131.73 2786.96 2109.71 2807.3 2106.99 2810.8 2103.78 2815.14 2106.88 2821.47 2107.17 2821.86 2107.34 2822.2 2107.67 2822.68 2109.6 2825.39 2113 2827.59 2116.57 2827.12 2119.16 2826.8 2120.9 2826.41 2123.25 2824.89 2129.26 2819.8 2131.88 2819.55 2138.63 2813.27 2138.66 2813.63 2138.61 2814.02 2138.63 2814.32 2138.8 2817.99 2136.32 2821.28 2134.1 2825.08 2123.68 2845.78 2094.43 2863.24 2068.58 2889.34 2068.31 2889.85 2067.17 2890.51 2066.81 2891.1 2064.27 2893.11 2063.88 2895.68 2063.63 2898.74 2064.78 2900.01 2067.18 2900.52 2068.47 2899.11 2068.52 2899.05 2068.6 2898.99 2068.67 2898.94 2069.53 2897.99 2070.61 2897.41 2071.11 2896.49 2073.09 2894.05 2076.31 2892.24 2077.88 2889.85 2079.84 2898.33 2082.27 2906.17 2081.77 2914.41 2082.32 2917.85 2081.36 2920.3 2081.24 2921.97 2081.13 2923.72 2079.45 2925.07 2077.97 2924.88 2077.17 2924.75 2076.4 2924.41 2075.87 2923.88 2068.59 2916.61 2067.39 2911.91 2061.69 2907.2 2060.94 2906.71 2059.96 2905.06 2059.31 2904.34 2058.17 2903.12 2055.73 2902.85 2054.47 2903.87 2054.42 2903.93 2054.36 2903.95 2054.33 2904 2054.08 2904.31 2053.64 2904.59 2053.04 2905.19 2049.45 2909.67 2045.93 2911.46 2041.14 2916.38 2035 2922.98 2030.2 2928.21 2032.04 2938.9 2026.59 2957.16 2053.05 2975.77 2069.86 2976.45 2072.39 2976 2072.77 2976.55 2075.24 2976.45 2080.88 2977.3 2089.79 2971.95 2093.42 2965.29 2096.24 2959.66 2100.14 2956.36 2102.02 2949.86 2105.5 2945.52 2110.96 2940.44 2114.98 2939.52 2115 2939.52 2115.04 2939.55 2115.03 2939.57 2114.61 2947.05 2108.23 2955.87 2106.17 2965.76 2105.39 2968.16 2104.12 2968.71 2102.73 2970.33 2097.54 2972.86 2096.93 2981.6 2099.61 2986.32 2100.1 2987.78 2101.71 2988.73 2102.77 2989.46 2103.99 2990.43 2105.86 2992.29 2106.32 2994.1 2113 3004.04 2110.47 3015.41 2115.46 3020.9 2115.47 3020.92 2115.45 3020.95 2115.43 3020.95 2115.43 3020.95 2115.42 3020.95 2115.42 3020.95 2109.64 3020.05 2105.33 3017.65 2103.61 3012.81 2100.7 3010.21 2100.51 3005.4 2098.01 3002.71 2095.47 2996.3 2085.69 2988.33 2076.74 2990.2 2074.69 2990.34 2074.21 2989.69 2071.82 2990.2 2025.1 2995.04 1991.52 2951.75 1997.66 2916.07 1997.6 2901.43 1997.8 2896.93 1997.66 2881.08 1997.17 2875.23 1999.28 2867.89 2001.64 2861.36 2002.04 2859.61 2001.76 2857.78 1999.42 2857.03 1997.43 2856.19 1995.24 2857.61 1995.12 2859.16 1995.47 2859.94 1993.69 2862.69 1992.92 2866.78 1987.84 2862.71 1983.65 2859.36 1977.62 2859.61 1968.2 2862.53 1960.78 2859.18 1953.21 2859.61 1953.13 2859.6 1953.04 2859.55 1952.97 2859.5 1952.86 2859.41 1952.87 2859.15 1952.94 2859.04 1955.34 2856.49 1957.73 2855.06 1958.76 2853.23 1967.32 2844.17 1985.04 2836.99 2001.45 2835.55 2001.94 2835.46 2002.58 2835.69 2003.02 2835.55 2011.25 2836.84 2020.14 2831.05 2028.36 2825.93 2041.28 2807.59 2062.26 2800.44 2074.08 2784.69 2079.8 2777.84 2092.11 2772.26 2102.34 2767.32 2125.82 2754.3 2145.9 2755.86 2161.86 2744.11 2162.3 2744.04 2162.7 2743.97 2163.05 2743.87 2164.85 2744.27 2166.5 2745.34 2166.14 2746.97 2166.14 2746.98 2166.14 2747 2166.14 2747.02 2165.79 2748.96 2166.48 2750.59 2166.12 2752.02Z" stroke="#000000" stroke-width="2.29167" stroke-linecap="butt" stroke-linejoin="miter" stroke-miterlimit="8" stroke-opacity="1" fill="none" fill-rule="evenodd"/><path d="M2125 2775.5C2125.49 2778.62 2122.56 2780.94 2119.5 2781 2116.37 2781.23 2114.3 2777.99 2114 2775.5 2114.01 2771.72 2116.93 2770.17 2119.5 2770 2122.81 2769.63 2125.64 2772.51 2125 2775.5Z" fill="#000000" fill-rule="evenodd" fill-opacity="1"/><path d="M2125 2775.5C2124.71 2778.26 2121.96 2780.45 2119.5 2781 2115.74 2781.07 2113.96 2778.61 2114 2775.5 2114.3 2772.58 2116.19 2769.82 2119.5 2770 2122.5 2769.72 2124.62 2772.36 2125 2775.5Z" stroke="#000000" stroke-width="2.29167" stroke-linecap="butt" stroke-linejoin="miter" stroke-miterlimit="8" stroke-opacity="1" fill="none" fill-rule="evenodd"/></g></g></svg>