<svg viewBox="0 0 220 312" width="220" height="312" xmlns="http://www.w3.org/2000/svg" xmlns:xlink="http://www.w3.org/1999/xlink" xml:space="preserve" overflow="hidden"><g transform="translate(-1842 -247)"><g><path d="M1942.49 270.15C1943.25 269.552 1945.26 270.888 1946.27 271.526 1962.5 284.626 1980.85 309.885 1990.92 331.386 1991 336.93 1991.33 342.969 1991.52 349.146L1991.32 366.213 1987.34 382.749C1985.33 388.372 1982.67 393.788 1979.24 398.814 1969.1 407.512 1967.74 423.093 1973.06 434.592 1976.03 443.744 1985.28 453.573 1995.73 457.642 2009.13 459.963 2023.81 464.108 2032.82 451.105 2039.54 446.037 2046.4 438.29 2045.53 428.744 2050.17 448.185 2047.92 481.393 2041.75 494.452 2027.69 528.126 1994.26 554.269 1955.54 555 1955.56 541.625 1950.66 525.669 1929.78 502.365 1923.98 495.183 1920.22 487.171 1917.85 479.165L1916.28 468.981 1914.33 455.871C1913.96 441.521 1916.57 430.57 1916.73 429.776 1917.53 423.743 1919.03 423.427 1919.82 417.391 1916.24 421.244 1914.41 422.102 1910.89 426.68 1891.45 445.664 1883.48 465.532 1881.18 483.577L1881.25 506.381 1881.05 510.022C1881.69 517.326 1883.28 523.869 1885.48 529.543 1878.78 520.586 1866.54 504.752 1859.18 485.571L1855.76 474.059 1855 457.391C1855.34 445.488 1857.51 433.22 1862.12 421.52L1867.13 412.117 1874.36 403.227C1881.43 395.398 1891.11 385.87 1902.31 374.733 1937.65 358.836 1955.25 309.179 1942.49 270.15Z" fill="#E84444" fill-rule="evenodd" fill-opacity="1"/><path d="M1896.16 363.704C1872.68 384.838 1859.73 405.599 1853.73 413.32 1829.53 471.388 1870.43 519.793 1888.92 536.671 1892.17 537.66 1894.92 540.714 1897.89 541.495 1895.78 538.674 1896.27 536.11 1893.75 532.192 1879.82 512.187 1885.49 475.703 1905.82 435.027 1907.26 453.079 1897.06 476.706 1922.38 501.526 1946.56 531.153 1946.89 553.212 1946.88 553.555 1946.9 554.559 1946.55 555.774 1946.88 557 1947.75 556.99 1948.95 557.367 1950.33 557 1990.41 557.88 2023.85 523.574 2046.59 492.568 2053.98 466.223 2056.91 433.203 2043.14 407.807 2037.32 402.973 2036.28 397.296 2033.14 394.369 2036.39 399.632 2035.14 406.012 2037.28 410.563 2041.41 423.576 2034.77 433.768 2026.93 440.884 2019.01 447.386 2007.55 447.456 1996.56 446.053 1987.73 444.843 1980.06 436.105 1977.93 427.447 1973.18 415.408 1976.61 406.338 1983.45 397.815 2001.86 378.229 1997.55 347.663 1995.87 324.424 1984.67 288.023 1965.53 268.279 1935.15 253.79 1931.7 253.448 1930.52 250.97 1926.18 250 1928.67 253.197 1927.95 254.924 1930.66 258.614 1956.47 307.658 1910.58 349.82 1896.16 363.704ZM1944.12 266.194C1968.68 284.401 1983.89 296.851 1988.97 326.147 1989.3 348.359 1993.59 378.497 1977.24 393.68 1969.1 405.939 1967.61 418.75 1971.03 429.514 1976.28 437.463 1985.93 449.215 1993.8 452.599 2007.27 454.924 2022.02 459.075 2031.07 446.053 2037.82 440.977 2044.71 433.217 2043.83 423.657 2048.49 443.128 2046.24 476.387 2040.04 489.467 2025.5 523.967 1991.9 552.259 1953.44 550.109 1953.7 540.461 1946.43 527.722 1927.56 497.392 1903.96 468.561 1914.12 426.281 1914.45 424.69 1915.27 419.732 1917.27 417.198 1917.55 412.286 1913.95 416.145 1912.12 417.005 1908.58 421.589 1875.01 465.215 1874.23 501.883 1883.05 524.612 1861.67 519.259 1841.06 463.296 1859.59 416.421 1865.48 401.97 1878.71 387.77 1899.96 369.561 1928.56 345.76 1948.58 304.79 1940.33 264.816 1941.09 264.218 1943.11 265.556 1944.12 266.194Z" fill="#000000" fill-rule="evenodd" fill-opacity="1"/><path d="M1896.16 363.704C1874.17 383.973 1859.82 403.191 1853.73 413.32 1832.47 475.08 1859.56 523.692 1888.92 536.671 1892.1 538.021 1895.69 540.949 1897.89 541.495 1895.46 538.12 1896.36 535.554 1893.75 532.192 1882.49 513.981 1884.36 466.444 1905.82 435.027 1901.61 449.049 1904.05 476.866 1922.38 501.526 1946.58 531.19 1946.91 553.16 1946.88 553.555 1947.15 555.074 1946.69 556.152 1946.88 557 1947.71 556.922 1949.63 557.043 1950.33 557 1993.55 561.017 2027.77 528.668 2046.59 492.568 2062.95 464.624 2062.65 423.867 2043.14 407.807 2040.83 405.101 2036.5 396.065 2033.14 394.369 2035.75 401.967 2034.38 403.286 2037.28 410.563 2038.59 420.522 2036.03 431.523 2026.93 440.884 2019.12 446.28 2009.01 449.574 1996.56 446.053 1987.2 444.41 1980.5 435.777 1977.93 427.447 1974.5 417.07 1978.62 407.977 1983.45 397.815 1998.94 378.036 1996.49 350.794 1995.87 324.424 1989.01 293.529 1957.78 273.002 1935.15 253.79 1932.2 253.653 1928.25 250.218 1926.18 250 1928.05 253.482 1928.08 254.742 1930.66 258.614 1957.33 309.35 1908.13 351.052 1896.16 363.704ZM1944.12 266.194C1960.43 279.315 1978.86 304.613 1988.97 326.147 1992.41 347.167 1991.03 373.545 1977.24 393.68 1967.06 402.391 1965.69 417.997 1971.03 429.514 1974.01 438.68 1983.31 448.525 1993.8 452.599 2007.19 457.871 2022.91 454.513 2031.07 446.053 2036.86 440.926 2040.98 431.474 2043.83 423.657 2051.9 447.404 2050.02 467.523 2040.04 489.467 2025.92 523.193 1992.33 549.377 1953.44 550.109 1953.45 536.713 1948.53 520.732 1927.56 497.392 1904.25 468.619 1913.69 426.552 1914.45 424.69 1915.25 418.648 1916.75 418.332 1917.55 412.286 1913.88 416.107 1912.9 416.989 1908.58 421.589 1869.51 459.616 1876.56 501.183 1883.05 524.612 1869.58 506.671 1833.89 461.175 1859.59 416.421 1861.04 407.734 1877.47 391.871 1899.96 369.561 1935.46 353.64 1953.14 303.906 1940.33 264.816 1940.94 263.774 1943.23 265.677 1944.12 266.194Z" stroke="#000000" stroke-width="2.29167" stroke-linecap="butt" stroke-linejoin="miter" stroke-miterlimit="8" stroke-opacity="1" fill="none" fill-rule="evenodd"/></g></g></svg>