<svg viewBox="0 0 220 280" width="220" height="280" xmlns="http://www.w3.org/2000/svg" xmlns:xlink="http://www.w3.org/1999/xlink" xml:space="preserve" overflow="hidden"><g transform="translate(-1526 -1663)"><g><path d="M1686.51 1853.01C1688.17 1853.25 1690.13 1854.76 1689.99 1856.51 1689.8 1858.45 1688.49 1859.99 1686.51 1860 1684.67 1860.03 1682.79 1858.34 1683.02 1856.51 1683.04 1854.91 1684.59 1852.82 1686.51 1853.01Z" fill="#4472C4" fill-rule="evenodd" fill-opacity="1"/><path d="M1624.86 1675.02C1631.94 1673.65 1639.41 1673.63 1646.88 1675.14 1647.57 1675.24 1648.75 1675.71 1649.24 1676.67 1651.07 1678.5 1651.09 1679.82 1652.77 1681.47 1653.95 1682.89 1656.01 1683.09 1657.52 1682.27 1657.92 1681.47 1659.99 1680.81 1660.71 1680.05 1661.01 1679.72 1661.38 1679.72 1661.86 1679.91 1682.8 1690.15 1691.9 1705.52 1693 1724.91 1692.81 1728.24 1692.89 1731.93 1690.59 1733.69 1690.06 1734.55 1689 1735.58 1688.13 1736.83 1687.75 1733.2 1684.95 1727.63 1682.09 1724.07 1676.31 1717.78 1674.98 1715.69 1670.38 1710.69 1669.61 1710.03 1668.06 1709.42 1666.91 1709.63 1659.85 1710.18 1655.8 1716.22 1652.29 1721.56L1639.87 1733.96 1632.95 1736.54C1629.2 1737.51 1624.77 1738.3 1619.56 1738.96 1603.71 1739.36 1593.56 1736.27 1576 1738.96 1580.4 1733.24 1580.86 1728.31 1582.63 1720.2 1582.68 1719.99 1582.78 1719.74 1582.77 1719.51 1584.62 1711.31 1587.65 1704.04 1591.63 1697.85L1606.15 1682.66 1624.86 1675.02Z" fill="#E1E1E1" fill-rule="evenodd" fill-opacity="1"/><path d="M1666.99 1717C1671.34 1721.84 1673.05 1724.18 1677.15 1728.67 1679.49 1732.15 1681.6 1737.65 1681.83 1741.21 1682.51 1744.65 1680.85 1748.23 1681.83 1750.06 1675.34 1776.89 1658.42 1791.17 1636.95 1795L1619.07 1791.15 1605.11 1782.54C1597.15 1775.06 1592.32 1764.25 1592.08 1750.06 1591.81 1748.18 1592.33 1747.61 1592.08 1746.07 1598.46 1745.86 1602.72 1746.68 1606.7 1747.14L1611.5 1746.75 1611.5 1746.75C1613.85 1746.76 1616.5 1746.58 1619.69 1746.07 1642.05 1748.9 1649.86 1733.96 1657.89 1725.93 1661.46 1722.28 1663.36 1719.01 1666.99 1717Z" fill="#F3C689" fill-rule="evenodd" fill-opacity="1"/><path d="M1612.43 1796C1622.96 1804.86 1646.66 1806.17 1660.59 1796 1660.65 1798.1 1660.28 1800.31 1660.59 1801.59 1661.23 1806.84 1663.6 1811.88 1669.12 1814.01 1670.37 1814.47 1670.51 1814.89 1672 1815.16 1667.17 1816.69 1661.33 1819.32 1655.18 1821.11L1654.6 1821.22 1636.5 1822C1623.18 1821.61 1612.29 1819.55 1601 1815.16 1602.28 1814.41 1602.81 1814.6 1603.87 1814.02 1608.28 1811.98 1611.84 1806.81 1612.43 1801.59 1611.92 1799.25 1613.09 1798.02 1612.43 1796Z" fill="#F3C689" fill-rule="evenodd" fill-opacity="1"/><path d="M1679.79 1819C1681.22 1819.35 1682.31 1819.95 1683.1 1820.15 1684.16 1829.91 1680.41 1838.56 1683.1 1843.33 1683.09 1843.4 1683.13 1843.47 1683.14 1843.55 1679.44 1844.58 1676.74 1846.79 1675.07 1849.73L1675.01 1850.07 1674.03 1850.86C1672.3 1853.83 1671.96 1857.14 1673.21 1860.25 1673.48 1861.66 1674.23 1863.01 1675.31 1864.23L1677.05 1865.61 1679.83 1869.5C1682.76 1871.14 1686.26 1871.34 1689.93 1870.17 1694.22 1869.6 1697.15 1867.31 1698.78 1864.22L1698.89 1863.13 1699.16 1862.92C1701.22 1860.09 1701.87 1856.89 1699.86 1853.47 1697.19 1848.49 1695.62 1844.33 1689.93 1843.55 1689.94 1843.46 1689.97 1843.4 1689.97 1843.33 1688.09 1834.22 1692.03 1831.22 1689.97 1822.62 1701.84 1826.58 1715.9 1833.45 1727.35 1842.34L1734.21 1850.68 1736.36 1860.24C1739.34 1883.58 1730.58 1902.2 1736.36 1915.1 1733.47 1916.68 1728.66 1918.23 1722.39 1919.7L1710.47 1921.83 1700.37 1923.36C1648.24 1928.79 1559.22 1925.78 1537 1914.99 1536.9 1895.98 1540.37 1885.39 1537 1860.32 1537.86 1853.37 1539.87 1847.9 1546.05 1842.3 1557.7 1833.35 1570.43 1826.57 1583.41 1822.61L1583.44 1830.63 1583.23 1833.16C1582.94 1835.83 1582.71 1838.4 1583.41 1843.15 1568.77 1843.33 1559.7 1856.11 1561.06 1867.11 1561.89 1875.48 1558.62 1884.56 1561.06 1892.87 1560.58 1895.49 1561.16 1897.54 1562.56 1899.16L1562.97 1899.39 1563 1899.48C1564.54 1901.2 1566.77 1902.37 1569.04 1902.88 1569.68 1904.36 1570.92 1904.96 1572.28 1905L1572.34 1904.98 1572.39 1905.01C1573.72 1905.1 1575.15 1904.64 1576.27 1903.82 1578.24 1901.93 1578.96 1898.63 1577.21 1896.6 1576.62 1895.76 1575.37 1895.12 1573.99 1894.89L1573.93 1894.9 1573.92 1894.89C1572.64 1894.68 1571.25 1894.87 1569.98 1895.65 1569.9 1895.72 1569.83 1895.77 1569.76 1895.84 1568.68 1895.24 1568.1 1894.42 1567.94 1892.87 1567.53 1887.36 1570.77 1877.04 1567.94 1867.11 1568.71 1862.28 1570.91 1857.53 1573.97 1854.21L1574.58 1853.78 1585.12 1849.94C1586.18 1849.7 1587.84 1850 1588.56 1849.94 1597.51 1851.2 1605.29 1858.03 1605.75 1867.11 1607.66 1875.75 1603.87 1886.41 1605.75 1892.87 1605.98 1894.07 1604.94 1895.39 1603.93 1895.84 1602.41 1893.75 1598.63 1894.01 1596.66 1896.37 1594.44 1899.17 1594.26 1901.92 1597.2 1903.64 1598.74 1905.82 1602.71 1905.53 1604.47 1903.1 1604.54 1903.03 1604.58 1902.97 1604.65 1902.88 1610.26 1901.66 1612.47 1898.34 1612.62 1892.87 1612.26 1882.02 1615.42 1878.53 1612.62 1867.11 1612.97 1859.21 1610.74 1853.53 1606.74 1849.67L1602.57 1848.02 1598 1844.85C1595.46 1843.71 1592.81 1843.12 1590.28 1843.16 1590.09 1839.06 1590.71 1836.03 1591.06 1832.67L1590.86 1829.46 1590.93 1826.83C1590.88 1825.04 1590.69 1822.92 1590.28 1820.15 1591.01 1819.88 1592.51 1819.73 1593.56 1819.01 1601.25 1826.8 1619.91 1829.44 1636.68 1829.34 1652.98 1831.18 1671.1 1825.6 1679.79 1819Z" fill="#FFFFFF" fill-rule="evenodd" fill-opacity="1"/><path d="M1687 1850.05C1691.31 1851.07 1694.25 1853.87 1693.98 1857.02L1692.05 1861.86 1687 1864C1683.21 1863.94 1679.74 1861.75 1680.02 1857.02 1680.86 1853.46 1682.89 1849.54 1687 1850.05ZM1687 1853.53C1685.08 1853.35 1683.53 1855.43 1683.51 1857.02 1683.28 1858.86 1685.16 1860.54 1687 1860.51 1688.98 1860.5 1690.3 1858.97 1690.49 1857.02 1690.63 1855.28 1688.67 1853.77 1687 1853.53Z" fill="#000000" fill-rule="evenodd" fill-opacity="1"/><path d="M1690 1856.5C1689.67 1858.75 1688.62 1859.92 1686.5 1860 1684.66 1860.03 1682.77 1858.34 1683 1856.5 1682.95 1854.2 1684.43 1853.41 1686.5 1853 1688.52 1853.27 1690.11 1854 1690 1856.5Z" fill="#000000" fill-rule="evenodd" fill-opacity="1"/><path d="M1690 1856.5C1689.8 1858.45 1688.49 1859.99 1686.5 1860 1684.86 1859.87 1683.21 1858.18 1683 1856.5 1683.02 1854.9 1684.57 1852.81 1686.5 1853 1688.17 1853.24 1690.14 1854.75 1690 1856.5Z" stroke="#000000" stroke-width="2.29167" stroke-linecap="butt" stroke-linejoin="miter" stroke-miterlimit="8" stroke-opacity="1" fill="none" fill-rule="evenodd"/><path d="M1732.36 1837.12C1717.71 1825.62 1703.74 1821.05 1689.35 1815.02 1683.21 1814.33 1679.22 1810.75 1672.35 1808.07 1669.52 1806.84 1667.9 1804.84 1668.06 1801.71 1667.27 1797.01 1668.35 1794.02 1668.06 1791.59 1681.98 1780.06 1686.9 1766.36 1688.77 1750.46 1688.68 1749.86 1688.92 1748.85 1688.77 1748.19 1691.06 1744.68 1693.55 1742.2 1696.37 1738.52 1698.91 1734.58 1701.52 1730.41 1700.2 1724.93 1701.48 1707.97 1685.11 1685.93 1665.14 1674.29 1662.71 1673.35 1659.7 1673.67 1657.02 1674.98 1656.85 1675.15 1656.68 1675.21 1656.59 1675.28 1656.06 1674.66 1655.7 1673.62 1655.04 1673.17 1653.16 1670.39 1651.05 1668.73 1648.28 1668.92 1608.16 1666.82 1578.78 1691.74 1576.08 1718.85 1576.11 1719.08 1575.99 1719.23 1575.94 1719.54 1573.78 1727.63 1572.25 1734.46 1567.11 1741.15 1566.09 1743.08 1566.72 1744.78 1568.07 1745.91 1568.64 1746.27 1569.39 1746.51 1569.99 1746.49 1577.19 1744.85 1577.89 1748.18 1585.23 1746.49 1585.27 1747.99 1584.76 1748.6 1585.23 1750.46 1585.9 1768.86 1594.24 1781.47 1605.91 1791.57 1607 1794.02 1605.84 1799.29 1605.91 1801.71 1605.8 1804.15 1604.4 1806.89 1601.63 1808.07 1597.06 1812.03 1589.29 1812.03 1584.5 1815.07 1572.61 1818.42 1553.98 1828.28 1541.68 1837.08 1534.96 1840.5 1528.62 1851.21 1530 1860.39 1533.84 1878.15 1526.74 1893.47 1530 1918.91 1530.77 1919.28 1530.82 1919.47 1531.54 1919.94 1544.32 1932.81 1588.18 1928.71 1638.1 1936 1678.84 1936.53 1728.99 1931.48 1742.59 1919.83 1743.07 1919.26 1743.53 1919.34 1744 1918.8 1740.23 1893.54 1745.09 1885.01 1744 1860.32 1746.24 1852.25 1738.27 1842.95 1732.36 1837.12ZM1687.07 1850.09C1690.63 1850.98 1694.53 1852.22 1693.97 1856.96 1693.38 1861.57 1690.9 1864.89 1687.07 1863.83 1683.32 1863.77 1679.88 1861.61 1680.16 1856.96 1680.99 1853.45 1683 1849.59 1687.07 1850.09ZM1582.73 1720.81C1582.78 1720.58 1582.83 1720.32 1582.86 1720.13 1587.15 1688.01 1617.18 1669.65 1647.1 1675.68 1648.07 1675.9 1648.84 1676.69 1649.47 1677.22 1650.56 1678.35 1651.63 1680.43 1653 1682.03 1653.94 1683.6 1656.22 1683.6 1657.76 1682.82 1658.8 1681.92 1660.13 1681.2 1660.96 1680.61 1661.35 1680.48 1661.84 1680.28 1662.11 1680.47 1680.96 1684.13 1693.61 1703.97 1693.31 1725.53 1693.68 1728.78 1693.3 1731.51 1690.9 1734.33 1690.08 1735.65 1689.24 1735.83 1688.43 1737.47 1688.05 1733.83 1685.25 1728.26 1682.38 1724.69 1676.59 1718.39 1675.26 1716.3 1670.65 1711.29 1670 1710.36 1668.07 1709.95 1667.17 1710.23 1660.1 1710.78 1656.04 1716.83 1652.52 1722.18 1644.35 1733.2 1636.92 1739.99 1619.73 1739.61 1603.85 1740.01 1593.68 1736.91 1576.08 1739.61 1578.7 1735.07 1582.72 1726.96 1582.73 1720.81ZM1592.13 1750.46C1591.78 1748.97 1592.31 1748.33 1592.13 1746.5 1604.9 1746.07 1609.14 1749.76 1619.74 1746.5 1642.09 1749.3 1649.9 1734.46 1657.93 1726.48 1661.5 1722.85 1663.41 1719.61 1667.03 1717.6 1671.39 1722.41 1673.1 1724.74 1677.19 1729.21 1679.53 1732.66 1681.64 1738.13 1681.87 1741.66 1682.55 1745.08 1680.89 1748.64 1681.87 1750.46 1686.23 1776.65 1662.68 1789.8 1637 1795.12 1611.45 1793.44 1592.6 1778.67 1592.13 1750.46ZM1604.25 1814.43C1608.44 1812.09 1612.81 1806.2 1612.84 1801.71 1612.33 1799.31 1613.5 1798.06 1612.84 1795.99 1623.41 1805.06 1647.2 1806.4 1661.18 1795.99 1661.26 1798.68 1661.14 1799.87 1661.18 1801.71 1662.5 1806.53 1664.09 1812.1 1669.74 1814.43 1670.62 1814.77 1671.93 1815.45 1672.63 1815.6 1662.93 1818.73 1649.2 1826.38 1637 1822.6 1623.63 1822.21 1612.7 1820.09 1601.37 1815.6 1602.24 1815.17 1603.17 1814.95 1604.25 1814.43ZM1737.1 1915.27C1715.65 1930.1 1566.65 1929.55 1536.9 1915.16 1533 1902.85 1538.87 1876.5 1536.9 1860.46 1536.18 1851.5 1540.95 1848.79 1545.99 1842.44 1557.69 1833.49 1570.47 1826.7 1583.5 1822.74 1584.41 1832.99 1582.11 1833.79 1583.5 1843.29 1570.21 1843.81 1561.35 1855.84 1561.06 1867.26 1561.9 1875.63 1558.61 1884.72 1561.06 1893.03 1560.14 1898.34 1564.51 1902.03 1569.07 1903.04 1570.62 1905.84 1574.08 1905.63 1576.33 1903.99 1578.31 1902.1 1579.03 1898.8 1577.28 1896.76 1575.59 1895.04 1572.57 1894.25 1570.02 1895.82 1569.94 1895.85 1569.87 1895.92 1569.79 1896 1568.78 1895.53 1567.9 1894.15 1567.97 1893.03 1567.56 1887.52 1570.81 1877.2 1567.97 1867.26 1569.51 1857.59 1576.83 1848.26 1585.23 1850.09 1586.66 1850.06 1587.7 1850.48 1588.68 1850.09 1596.77 1849.17 1605.18 1855.76 1605.94 1867.26 1607.85 1875.91 1604.05 1886.57 1605.94 1893.03 1606.04 1894.48 1605 1895.63 1604.11 1896 1601.93 1894.34 1598.31 1894.33 1596.81 1896.54 1594.95 1898.6 1595.04 1902.06 1597.35 1903.8 1598.9 1905.98 1602.88 1905.7 1604.65 1903.27 1604.72 1903.19 1604.79 1903.11 1604.83 1903.04 1610.46 1901.83 1612.68 1898.5 1612.84 1893.03 1612.48 1882.18 1615.65 1878.69 1612.84 1867.26 1613.54 1851.46 1603.86 1844.51 1590.4 1843.3 1590.03 1835.1 1592.87 1831.19 1590.4 1820.28 1591.93 1819.69 1592.54 1819.62 1593.69 1819.14 1601.42 1826.94 1620.15 1829.57 1637 1829.47 1652.53 1830.37 1672.95 1824.36 1680.28 1819.13 1681.05 1819.33 1682.02 1820.16 1683.61 1820.29 1684.5 1825.54 1683.17 1837.03 1683.61 1843.47 1683.61 1843.54 1683.65 1843.61 1683.65 1843.69 1675.04 1847.14 1671.17 1854.18 1673.68 1860.4 1676.38 1869.5 1683.11 1872.67 1690.47 1870.32 1697.85 1866.4 1704.48 1860.47 1700.44 1853.61 1697.76 1848.63 1696.18 1844.47 1690.47 1843.69 1690.47 1843.61 1690.5 1843.53 1690.51 1843.47 1688.62 1834.36 1692.57 1831.36 1690.51 1822.76 1702.43 1826.72 1716.55 1833.59 1728.04 1842.48 1733.58 1845.96 1737.49 1853.64 1737.1 1860.39 1740.09 1883.74 1731.29 1902.36 1737.1 1915.27Z" fill="#000000" fill-rule="evenodd" fill-opacity="1"/><path d="M1732.36 1837.12C1720.79 1826.71 1703.16 1824.1 1689.35 1815.02 1685.3 1814.44 1680.03 1810.19 1672.35 1808.07 1669.89 1807.3 1668.19 1805.28 1668.06 1801.71 1667.4 1797.49 1668.71 1795.02 1668.06 1791.59 1680.31 1782.03 1687.51 1767.12 1688.77 1750.46 1688.55 1749.86 1688.93 1749.26 1688.77 1748.19 1690.62 1745.69 1693.63 1742.39 1696.37 1738.52 1698.99 1734.54 1699.85 1729.2 1700.2 1724.93 1698.57 1702.57 1688.22 1683.57 1665.14 1674.29 1663.3 1673.2 1659.88 1673.69 1657.02 1674.98 1656.86 1675.11 1656.76 1675.08 1656.59 1675.28 1655.91 1674.65 1655.63 1673.81 1655.04 1673.17 1653.23 1671.19 1650.85 1669.72 1648.28 1668.92 1611.17 1660.24 1583.22 1682.95 1576.08 1718.85 1576.03 1719.18 1575.93 1719.28 1575.94 1719.54 1573.25 1728.86 1570.76 1735.31 1567.11 1741.15 1566.23 1742.65 1566.08 1744.64 1568.07 1745.91 1568.79 1746.17 1569.15 1746.39 1569.99 1746.49 1573.38 1744.79 1580.89 1747.29 1585.23 1746.49 1585.27 1748.07 1585.19 1749.59 1585.23 1750.46 1583.82 1766.04 1593.57 1781.69 1605.91 1791.57 1606.03 1794.3 1605.82 1797.76 1605.91 1801.71 1606.19 1804.68 1604.23 1807.65 1601.63 1808.07 1597.91 1811.76 1590.56 1812.29 1584.5 1815.07 1570.38 1821.58 1555.92 1826.39 1541.68 1837.08 1534.63 1842.39 1529.3 1850.65 1530 1860.39 1536.94 1873.88 1523.31 1892.84 1530 1918.91 1530.86 1919.26 1530.75 1919.65 1531.54 1919.94 1537.5 1936.62 1586.68 1945.79 1638.1 1936 1681.71 1938.19 1727.47 1930.11 1742.59 1919.83 1743.01 1919.34 1743.55 1919.33 1744 1918.8 1737.55 1898.71 1745.09 1880.01 1744 1860.32 1741.64 1850.98 1737.8 1842.57 1732.36 1837.12ZM1687.07 1850.09C1691.32 1851.09 1694.24 1853.85 1693.97 1856.96 1694.04 1860.33 1691.28 1863.91 1687.07 1863.83 1682.74 1864.48 1679.62 1861.02 1680.16 1856.96 1679.65 1853.06 1684.06 1849.86 1687.07 1850.09ZM1582.73 1720.81C1582.77 1720.6 1582.88 1720.36 1582.86 1720.13 1590.31 1687.29 1616.56 1669.28 1647.1 1675.68 1647.79 1675.79 1648.98 1676.26 1649.47 1677.22 1651.3 1679.05 1651.32 1680.38 1653 1682.03 1654.18 1683.45 1656.25 1683.65 1657.76 1682.82 1658.17 1682.03 1660.23 1681.37 1660.96 1680.61 1661.26 1680.28 1661.63 1680.28 1662.11 1680.47 1683.1 1690.72 1692.21 1706.12 1693.31 1725.53 1693.12 1728.87 1693.2 1732.56 1690.9 1734.33 1690.37 1735.19 1689.3 1736.22 1688.43 1737.47 1686.71 1731.76 1684.57 1728.63 1682.38 1724.69 1677.61 1720.79 1676.1 1716.43 1670.65 1711.29 1669.87 1710.63 1668.32 1710.02 1667.17 1710.23 1661.8 1711.29 1657.64 1716.83 1652.52 1722.18 1648.85 1732.22 1640.61 1736.96 1619.73 1739.61 1599.38 1741.18 1591.67 1739.25 1576.08 1739.61 1580.49 1733.88 1580.95 1728.94 1582.73 1720.81ZM1592.13 1750.46C1591.86 1748.59 1592.38 1748.03 1592.13 1746.5 1602.87 1745.2 1606.97 1748.52 1619.74 1746.5 1640.78 1746.59 1650.85 1736.45 1657.93 1726.48 1659.86 1723.77 1663.86 1720.06 1667.03 1717.6 1672.19 1720.81 1672.41 1726.09 1677.19 1729.21 1680.13 1731.74 1682.33 1738.12 1681.87 1741.66 1682.72 1744.48 1681.28 1746.06 1681.87 1750.46 1675.38 1777.12 1658.47 1791.32 1637 1795.12 1609.65 1792.75 1586.81 1777.87 1592.13 1750.46ZM1604.25 1814.43C1608.68 1812.34 1612.25 1807.05 1612.84 1801.71 1612.76 1799.27 1612.95 1798.12 1612.84 1795.99 1632.48 1805.21 1646.31 1802.6 1661.18 1795.99 1661.24 1798.13 1660.86 1800.39 1661.18 1801.71 1661.82 1807.09 1664.2 1812.24 1669.74 1814.43 1670.99 1814.9 1671.13 1815.32 1672.63 1815.6 1663.16 1823.72 1650.67 1821.55 1637 1822.6 1622.13 1821.3 1612.38 1820.93 1601.37 1815.6 1602.66 1814.84 1603.19 1815.02 1604.25 1814.43ZM1737.1 1915.27C1713.86 1927.89 1567.1 1939.02 1536.9 1915.16 1536.8 1896.15 1540.28 1885.55 1536.9 1860.46 1537.77 1853.52 1539.78 1848.04 1545.99 1842.44 1557.78 1833.76 1567.93 1823.72 1583.5 1822.74 1583.99 1827.49 1583.13 1838.53 1583.5 1843.29 1568.81 1843.47 1559.7 1856.26 1561.06 1867.26 1563.31 1872.57 1559.37 1882.73 1561.06 1893.03 1560.1 1898.28 1563.37 1901.21 1569.07 1903.04 1570.36 1906.02 1574.06 1905.41 1576.33 1903.99 1578.06 1901.66 1579.09 1898.89 1577.28 1896.76 1576.09 1895.09 1572.25 1894.19 1570.02 1895.82 1569.94 1895.88 1569.87 1895.93 1569.79 1896 1568.71 1895.4 1568.13 1894.59 1567.97 1893.03 1566.06 1884.82 1569.25 1875.36 1567.97 1867.26 1566.09 1857.58 1574.62 1849.73 1585.23 1850.09 1586.29 1849.84 1587.96 1850.15 1588.68 1850.09 1597.66 1851.35 1605.48 1858.18 1605.94 1867.26 1607.14 1874.55 1605.31 1885.26 1605.94 1893.03 1606.16 1894.23 1605.13 1895.55 1604.11 1896 1602.59 1893.92 1598.79 1894.17 1596.81 1896.54 1594.58 1899.34 1594.4 1902.09 1597.35 1903.8 1598.73 1905.43 1602.86 1905.72 1604.65 1903.27 1604.72 1903.2 1604.76 1903.14 1604.83 1903.04 1609.56 1900.97 1611.58 1897.28 1612.84 1893.03 1610.28 1887.52 1613.59 1876.01 1612.84 1867.26 1612.51 1853.18 1600.58 1843.14 1590.4 1843.3 1590.18 1831.95 1592.04 1831.38 1590.4 1820.28 1591.13 1820.01 1592.64 1819.86 1593.69 1819.14 1601.2 1820.96 1619.16 1828.5 1637 1829.47 1653.37 1831.32 1671.56 1825.74 1680.28 1819.13 1681.72 1819.48 1682.82 1820.09 1683.61 1820.29 1684.67 1830.05 1680.91 1838.7 1683.61 1843.47 1683.6 1843.54 1683.64 1843.61 1683.65 1843.69 1676.21 1845.76 1672.81 1852.53 1673.68 1860.4 1674.76 1866.03 1683.58 1870.74 1690.47 1870.32 1699.09 1869.18 1702.22 1861.17 1700.44 1853.61 1698.41 1849.04 1695.01 1844.17 1690.47 1843.69 1690.48 1843.6 1690.51 1843.54 1690.51 1843.47 1688.51 1838.81 1690.51 1828.9 1690.51 1822.76 1706.19 1828.96 1717.5 1832.84 1728.04 1842.48 1735.32 1847.04 1736.6 1854.78 1737.1 1860.39 1742.1 1882.94 1734.17 1898.29 1737.1 1915.27Z" stroke="#000000" stroke-width="2.29167" stroke-linecap="butt" stroke-linejoin="miter" stroke-miterlimit="8" stroke-opacity="1" fill="none" fill-rule="evenodd"/></g></g></svg>